<?xml version="1.0" encoding="utf-8"?>
<!DOCTYPE svg PUBLIC "-//W3C//DTD SVG 20010904//EN" "http://www.w3.org/TR/2001/REC-SVG-20010904/DTD/svg10.dtd">
<svg version="1.0" xmlns="http://www.w3.org/2000/svg" width="102pt" height="102pt" viewBox="0 0 102 102" preserveAspectRatio="xMidYMid meet">
<g fill="#A09683FF">
<path d="M 55.56 95.09 C 55.25 94.59 56.01 94.42 57.25 94.71 L 59.50 95.23 L 57.25 93.56 C 56.01 92.64 54.99 91.12 54.97 90.19 C 54.95 89.26 54.22 87.60 53.33 86.50 C 52.03 84.88 51.84 84.83 52.33 86.25 C 52.82 87.66 52.36 88.00 49.97 88.00 C 48.27 88.00 46.99 88.53 46.98 89.25 C 46.96 91.35 45.29 93.30 44.12 92.58 C 43.39 92.12 43.68 91.18 45.01 89.76 C 46.10 88.58 47.00 87.23 47.00 86.74 C 47.00 86.26 48.01 86.12 49.25 86.44 C 51.48 87.00 51.48 87.00 49.37 85.91 C 47.82 85.10 47.29 83.95 47.41 81.65 C 47.55 78.91 47.08 78.28 43.78 76.80 C 41.70 75.86 40.00 74.83 40.00 74.51 C 40.00 74.19 40.87 74.40 41.93 74.96 C 43.00 75.53 44.77 76.00 45.88 76.00 C 47.69 76.00 47.79 75.69 46.83 72.94 C 46.17 71.04 45.25 70.07 44.43 70.39 C 43.58 70.71 43.30 70.37 43.66 69.45 C 43.96 68.65 43.72 68.00 43.11 68.00 C 42.50 68.00 42.00 68.52 42.00 69.17 C 42.00 69.81 41.80 70.13 41.55 69.88 C 41.30 69.63 41.80 67.03 42.66 64.09 C 44.33 58.40 43.77 57.05 39.75 57.02 C 38.79 57.01 38.00 56.35 38.00 55.57 C 38.00 54.75 36.83 54.00 35.26 53.82 L 32.53 53.50 L 34.61 51.50 C 37.19 49.04 39.52 42.67 38.03 42.18 C 37.46 41.99 37.04 40.86 37.08 39.67 C 37.12 38.48 37.38 38.06 37.66 38.74 C 38.04 39.69 38.49 39.65 39.58 38.56 C 41.57 36.57 41.35 35.68 39.00 36.29 C 37.90 36.58 37.00 36.68 37.00 36.52 C 37.00 36.37 39.02 34.05 41.49 31.37 C 45.38 27.15 45.98 26.80 45.99 28.75 C 46.00 30.13 46.61 31.00 47.58 31.00 C 48.45 31.00 48.98 31.55 48.76 32.23 C 48.20 33.89 51.57 37.38 52.92 36.55 C 54.68 35.46 54.15 33.27 52.00 32.71 C 50.80 32.40 50.00 31.35 50.00 30.09 C 50.00 27.39 53.01 27.31 53.71 30.00 C 54.00 31.10 54.57 32.00 54.98 32.00 C 55.39 32.00 55.52 33.07 55.27 34.38 C 54.75 37.07 56.61 38.79 58.26 37.14 C 59.04 36.36 59.02 35.34 58.19 33.53 C 57.56 32.14 57.42 31.00 57.88 31.00 C 58.34 31.00 59.18 32.46 59.75 34.25 C 60.33 36.04 60.84 36.71 60.90 35.75 C 60.95 34.79 61.44 34.00 61.97 34.00 C 62.50 34.00 62.70 33.38 62.41 32.63 C 62.12 31.88 62.59 30.99 63.44 30.66 C 64.38 30.30 65.00 28.85 65.00 27.03 C 65.00 24.03 65.06 24.00 70.38 24.00 C 75.90 24.00 77.74 25.06 78.43 28.65 C 78.63 29.67 79.46 32.08 80.29 34.00 L 81.79 37.50 L 81.26 31.85 C 80.81 26.93 81.00 26.07 82.75 25.14 C 84.55 24.17 84.81 24.43 85.36 27.78 C 85.70 29.83 85.98 37.91 85.99 45.75 L 86.00 60.00 L 78.68 60.00 L 71.37 60.00 L 71.43 52.25 C 71.48 46.68 71.92 44.13 73.00 43.18 C 74.27 42.06 73.92 41.94 70.75 42.37 C 68.69 42.65 67.00 42.48 67.00 42.01 C 67.00 41.53 68.01 41.00 69.25 40.82 C 71.12 40.55 71.49 39.90 71.42 36.93 C 71.32 32.89 70.31 30.69 68.93 31.54 C 68.42 31.86 67.96 31.08 67.90 29.81 C 67.80 27.53 67.79 27.53 67.00 30.00 C 65.87 33.52 65.82 39.00 66.92 39.00 C 67.42 39.00 68.03 38.44 68.28 37.75 C 68.53 37.06 69.06 36.81 69.46 37.18 C 70.60 38.24 69.09 40.00 67.05 40.00 C 64.87 40.00 63.50 42.90 64.97 44.37 C 66.22 45.62 66.34 50.00 65.12 50.00 C 63.58 50.00 61.80 47.13 62.57 45.89 C 63.04 45.13 62.88 44.95 62.15 45.40 C 59.54 47.02 61.78 52.40 64.62 51.31 C 65.67 50.91 66.00 51.89 66.00 55.39 C 66.00 58.90 66.37 60.00 67.56 60.00 C 68.42 60.00 68.84 60.45 68.50 61.00 C 68.16 61.55 68.55 62.00 69.37 62.00 C 70.19 62.00 71.13 62.84 71.45 63.86 C 71.78 64.88 73.05 66.24 74.27 66.89 C 76.01 67.80 76.06 67.92 74.50 67.42 C 69.61 65.84 69.00 65.81 69.02 67.13 C 69.04 68.57 78.13 75.00 80.14 75.00 C 80.81 75.00 80.49 75.94 79.40 77.17 C 78.36 78.37 78.07 79.01 78.76 78.61 C 79.75 78.03 79.78 78.40 78.88 80.36 C 77.89 82.53 77.45 82.71 75.38 81.76 C 74.07 81.17 73.00 80.41 73.00 80.09 C 73.00 79.77 70.86 79.56 68.25 79.64 C 63.93 79.76 63.51 79.99 63.61 82.14 C 63.71 84.29 60.76 88.00 58.95 88.00 C 58.54 88.00 58.56 89.55 58.99 91.45 C 59.42 93.35 59.52 95.15 59.22 95.45 C 58.36 96.31 56.18 96.10 55.56 95.09ZM 64.96 76.07 C 66.35 73.48 66.27 73.00 64.50 73.00 C 63.67 73.00 63.00 73.41 63.00 73.92 C 63.00 74.42 62.73 75.55 62.39 76.42 C 61.52 78.68 63.73 78.38 64.96 76.07ZM 84.80 51.00 C 84.64 46.60 84.14 43.00 83.69 43.00 C 83.25 43.00 83.16 42.55 83.50 42.00 C 83.84 41.45 83.59 41.00 82.95 41.00 C 82.31 41.00 82.05 41.67 82.36 42.50 C 82.71 43.41 82.36 44.00 81.47 44.00 C 80.32 44.00 80.00 45.50 80.00 50.93 C 80.00 57.32 80.17 57.89 82.25 58.29 C 83.49 58.53 84.64 58.79 84.80 58.86 C 84.97 58.94 84.97 55.40 84.80 51.00ZM 78.31 54.84 C 78.99 54.40 78.98 52.76 78.28 49.84 L 77.24 45.50 L 76.98 50.50 L 76.72 55.50 L 76.00 51.50 C 75.38 48.01 75.27 47.89 75.16 50.50 C 74.99 54.39 76.18 58.99 76.83 56.97 C 77.09 56.16 77.76 55.20 78.31 54.84ZM 84.78 38.83 C 84.56 38.19 83.23 37.62 81.81 37.56 C 80.10 37.48 79.40 37.87 79.72 38.72 C 80.34 40.33 85.31 40.44 84.78 38.83Z"/></g>
<g fill="#6E5F45FF">
<path d="M 34.56 57.30 C 34.29 56.58 32.92 56.00 31.53 56.00 C 29.40 56.00 29.00 55.54 29.00 53.08 C 29.00 49.12 29.93 47.00 31.67 47.00 C 32.46 47.00 32.84 47.45 32.50 48.00 C 31.69 49.31 33.10 49.25 35.00 47.91 C 36.07 47.15 36.16 46.71 35.31 46.36 C 34.65 46.09 34.36 45.23 34.66 44.44 C 34.96 43.65 35.56 43.23 36.00 43.50 C 36.43 43.77 36.36 42.12 35.85 39.83 C 35.23 37.07 35.27 35.33 35.96 34.64 C 36.53 34.07 37.00 30.55 37.00 26.81 C 37.00 19.57 35.27 16.00 31.78 16.00 C 30.64 16.00 29.95 15.19 29.87 13.75 C 29.80 12.51 29.64 10.60 29.52 9.50 C 29.30 7.61 29.79 7.52 38.65 7.82 C 44.00 8.00 48.00 8.56 48.00 9.14 C 48.00 9.69 48.90 9.85 50.00 9.50 C 51.56 9.00 52.00 9.32 52.00 10.93 C 52.00 12.80 52.60 13.00 58.17 13.00 C 61.56 13.00 64.06 13.27 63.73 13.61 C 63.39 13.94 59.92 14.24 56.02 14.26 C 52.12 14.29 48.72 14.65 48.47 15.05 C 48.21 15.46 52.84 15.79 58.75 15.79 C 65.47 15.78 68.56 15.48 67.00 14.99 C 65.62 14.56 65.09 14.15 65.81 14.10 C 66.53 14.04 66.88 13.62 66.59 13.15 C 66.30 12.67 67.28 12.28 68.78 12.26 C 70.28 12.25 73.75 11.81 76.50 11.28 C 83.11 10.00 80.19 8.60 72.14 9.18 C 68.48 9.45 66.33 9.21 66.33 8.55 C 66.33 7.87 69.75 7.61 76.16 7.82 L 86.00 8.13 L 86.00 11.83 C 86.00 15.25 85.78 15.53 82.95 15.65 C 79.36 15.79 79.48 15.69 78.59 19.38 C 77.97 21.94 78.13 22.20 79.95 21.72 C 82.28 21.11 82.59 21.97 80.75 23.95 C 79.47 25.33 79.86 25.27 84.50 23.39 C 85.67 22.92 85.97 23.52 85.85 26.14 C 85.72 29.17 85.66 29.23 85.28 26.75 C 84.92 24.32 84.63 24.13 82.80 25.10 C 80.99 26.08 80.80 26.88 81.26 31.85 L 81.79 37.50 L 80.29 34.00 C 79.46 32.08 78.63 29.67 78.43 28.65 C 78.24 27.63 77.59 26.21 77.00 25.50 C 76.21 24.55 76.27 24.07 77.21 23.72 C 78.20 23.36 78.23 22.96 77.33 22.00 C 76.68 21.32 76.39 20.14 76.69 19.38 C 77.26 17.89 74.30 17.55 70.25 18.63 C 67.58 19.35 67.22 22.65 69.75 23.31 C 70.71 23.56 70.04 23.82 68.25 23.88 C 65.47 23.98 65.00 24.37 65.00 26.53 C 65.00 27.92 64.37 29.30 63.60 29.60 C 62.83 29.90 61.86 31.79 61.45 33.82 L 60.70 37.50 L 59.71 34.27 C 58.89 31.59 58.33 31.13 56.50 31.59 C 54.82 32.01 54.14 31.64 53.73 30.07 C 53.01 27.33 50.00 27.35 50.00 30.09 C 50.00 31.35 50.80 32.40 52.00 32.71 C 54.15 33.27 54.68 35.46 52.92 36.55 C 51.57 37.38 48.20 33.89 48.76 32.23 C 48.98 31.55 48.45 31.00 47.58 31.00 C 46.61 31.00 46.00 30.13 45.99 28.75 C 45.98 26.80 45.38 27.15 41.49 31.37 C 38.40 34.72 37.00 37.11 37.00 39.03 C 37.00 40.57 37.44 41.98 37.98 42.17 C 39.78 42.78 36.88 50.00 34.83 50.00 C 33.82 50.00 33.00 50.45 33.00 51.00 C 33.00 51.55 32.49 51.89 31.88 51.75 C 31.26 51.61 30.54 52.06 30.29 52.75 C 29.97 53.62 31.07 54.00 33.92 54.00 C 36.79 54.00 38.00 54.42 38.00 55.43 C 38.00 56.22 39.01 57.02 40.25 57.22 C 41.84 57.48 41.40 57.73 38.78 58.09 C 36.27 58.43 34.90 58.17 34.56 57.30ZM 49.80 11.99 C 50.86 11.99 50.39 11.41 48.54 10.45 C 46.44 9.35 43.35 8.99 37.79 9.20 C 28.47 9.56 27.31 11.00 36.35 11.00 C 41.46 11.00 43.05 11.40 44.53 13.04 C 46.13 14.81 46.49 14.87 47.24 13.54 C 47.71 12.69 48.86 12.00 49.80 11.99Z"/></g>
<g fill="#241D13FF">
<path d="M 27.21 67.00 C 27.29 37.46 28.31 2.04 28.94 6.50 C 29.10 7.60 29.34 8.95 29.46 9.50 C 29.59 10.05 29.76 11.74 29.85 13.25 C 29.95 15.16 30.54 16.00 31.78 16.00 C 35.30 16.00 37.00 19.57 37.00 26.95 C 37.00 30.76 36.54 34.17 35.98 34.52 C 35.41 34.86 35.01 34.78 35.09 34.32 C 35.17 33.87 35.18 30.46 35.12 26.75 C 35.00 20.27 34.90 20.00 32.53 20.00 C 30.12 20.00 30.05 20.21 30.12 26.94 C 30.17 32.54 30.50 33.97 31.84 34.33 C 33.23 34.70 33.20 34.79 31.64 34.88 C 30.42 34.96 29.98 35.52 30.36 36.50 C 30.68 37.32 30.54 38.00 30.05 38.00 C 29.57 38.00 29.13 45.65 29.08 55.00 C 29.00 68.82 29.24 72.00 30.37 72.00 C 31.17 72.00 32.39 69.80 33.29 66.75 C 34.67 62.08 34.85 61.86 34.92 64.75 C 34.99 67.66 35.31 68.00 37.94 68.00 C 40.73 68.00 40.85 68.17 40.31 71.49 C 39.98 73.54 40.23 75.57 40.92 76.41 C 41.86 77.54 41.76 77.90 40.43 78.17 C 39.51 78.35 38.25 80.07 37.63 81.99 C 36.74 84.73 35.85 85.59 33.50 86.00 C 30.88 86.45 30.35 87.12 29.31 91.32 C 28.66 93.97 27.90 96.66 27.62 97.32 C 27.34 97.97 27.16 84.33 27.21 67.00ZM 31.35 83.52 C 31.67 82.71 31.28 80.57 30.50 78.77 L 29.08 75.50 L 29.04 80.25 C 29.00 84.85 30.20 86.54 31.35 83.52Z"/></g>
<g fill="#241D13FF">
<path d="M 87.00 96.50 C 87.00 95.55 85.98 94.96 84.25 94.90 C 81.67 94.81 81.64 94.76 83.81 94.15 C 85.08 93.79 86.09 93.16 86.06 92.75 C 86.03 92.34 86.00 91.58 86.00 91.07 C 86.00 90.57 84.16 90.28 81.92 90.44 C 79.26 90.63 77.66 90.28 77.33 89.43 C 77.06 88.71 74.38 87.82 71.36 87.44 C 67.35 86.94 66.02 86.39 66.40 85.40 C 66.68 84.66 66.15 83.62 65.21 83.09 C 64.08 82.45 63.84 81.80 64.50 81.16 C 65.87 79.83 74.97 81.36 76.11 83.11 C 76.84 84.23 77.36 84.06 78.79 82.21 C 82.19 77.84 81.47 75.59 75.38 71.55 C 72.32 69.52 70.04 67.63 70.31 67.36 C 71.02 66.65 83.25 73.10 84.72 74.96 C 85.68 76.18 85.94 70.94 85.97 49.64 C 86.00 26.16 85.81 22.86 84.50 23.39 C 79.86 25.27 79.47 25.33 80.75 23.95 C 82.59 21.97 82.28 21.11 79.95 21.72 C 78.13 22.20 77.97 21.94 78.59 19.38 C 79.48 15.69 79.36 15.79 82.95 15.65 C 85.96 15.52 86.00 15.45 86.00 10.09 C 86.00 7.11 86.18 4.85 86.41 5.08 C 87.10 5.79 88.32 98.00 87.64 98.00 C 87.29 98.00 87.00 97.33 87.00 96.50Z"/></g>
<g fill="#6E5F45FF">
<path d="M 28.66 94.50 C 29.69 87.84 30.66 86.17 33.70 85.82 C 35.90 85.57 36.74 84.75 37.63 82.00 C 38.25 80.08 39.51 78.35 40.43 78.17 C 41.74 77.91 41.85 77.53 40.96 76.45 C 40.10 75.42 40.81 75.49 43.75 76.75 C 47.26 78.25 47.66 78.77 47.44 81.60 C 47.25 84.00 47.72 85.05 49.34 85.89 L 51.50 87.01 L 49.25 86.44 C 48.01 86.12 47.00 86.26 47.00 86.74 C 47.00 87.23 46.10 88.59 45.00 89.76 C 43.20 91.70 43.17 91.99 44.64 92.82 C 45.92 93.54 45.66 93.75 43.38 93.84 C 30.49 94.35 29.70 94.50 28.87 96.50 C 28.36 97.75 28.28 96.99 28.66 94.50Z"/></g>
<g fill="#6E5F45FF">
<path d="M 84.30 74.69 C 83.50 73.38 71.77 66.97 70.29 67.04 C 69.86 67.06 70.85 68.23 72.50 69.64 L 75.50 72.21 L 72.25 70.39 C 68.82 68.47 67.90 66.00 70.61 66.00 C 71.66 66.00 72.01 65.46 71.61 64.42 C 71.27 63.55 71.00 62.65 71.00 62.42 C 71.00 62.19 70.30 62.00 69.44 62.00 C 68.58 62.00 68.16 61.55 68.50 61.00 C 68.84 60.45 72.92 60.00 77.56 60.00 L 86.00 60.00 L 86.00 68.00 C 86.00 76.08 85.75 77.06 84.30 74.69Z"/></g>
<g fill="#C9C5BAFF">
<path d="M 66.16 56.25 C 66.32 52.58 66.33 52.57 66.72 55.73 C 67.05 58.36 67.37 58.73 68.45 57.73 C 69.43 56.83 69.48 56.28 68.64 55.67 C 67.80 55.07 67.83 54.71 68.75 54.34 C 69.44 54.06 70.00 53.39 70.00 52.86 C 70.00 52.32 69.55 52.16 69.00 52.50 C 68.45 52.84 68.00 52.61 68.00 51.99 C 68.00 51.37 66.99 50.99 65.75 51.15 C 64.51 51.31 62.94 51.09 62.25 50.66 C 60.76 49.73 60.59 46.37 61.99 45.51 C 62.53 45.17 62.74 45.52 62.44 46.29 C 62.15 47.05 62.68 48.31 63.62 49.09 C 65.00 50.23 65.41 50.25 65.77 49.19 C 66.11 48.18 66.64 48.27 68.10 49.59 C 69.15 50.54 70.00 50.82 70.00 50.21 C 70.00 49.61 69.05 48.45 67.89 47.64 C 66.61 46.74 66.08 45.68 66.55 44.93 C 67.02 44.16 66.90 43.95 66.22 44.36 C 65.63 44.73 64.88 44.62 64.57 44.11 C 63.59 42.53 65.12 40.00 67.05 40.00 C 69.09 40.00 70.60 38.24 69.46 37.18 C 69.06 36.81 68.53 37.06 68.28 37.75 C 68.03 38.44 67.42 39.00 66.92 39.00 C 65.82 39.00 65.87 33.52 67.00 30.00 C 67.79 27.53 67.80 27.53 67.90 29.81 C 67.96 31.08 68.42 31.86 68.93 31.54 C 70.31 30.69 71.32 32.89 71.42 36.93 C 71.49 39.90 71.12 40.55 69.25 40.82 C 68.01 41.00 67.00 41.53 67.00 42.01 C 67.00 42.48 68.69 42.65 70.75 42.37 C 73.92 41.94 74.27 42.06 73.00 43.18 C 71.95 44.10 71.53 46.31 71.61 50.50 C 71.77 58.67 71.32 60.00 68.43 60.00 C 66.26 60.00 66.02 59.60 66.16 56.25Z"/></g>
<g fill="#6E5F45FF">
<path d="M 69.37 93.47 C 70.11 91.54 66.21 87.00 63.82 87.00 C 62.82 87.00 62.00 86.55 62.00 86.00 C 62.00 85.45 62.46 85.00 63.02 85.00 C 63.59 85.00 63.78 83.96 63.44 82.61 C 63.09 81.22 63.34 79.91 64.03 79.48 C 64.86 78.97 65.02 79.35 64.58 80.76 C 64.16 82.07 64.46 82.96 65.45 83.34 C 66.29 83.66 66.72 84.56 66.42 85.34 C 66.01 86.41 67.22 86.92 71.36 87.44 C 74.38 87.82 77.06 88.71 77.33 89.43 C 77.66 90.27 79.25 90.63 81.84 90.45 C 84.63 90.25 86.02 90.60 86.41 91.62 C 87.18 93.62 84.77 94.35 78.19 94.12 C 76.15 94.05 75.13 93.60 75.53 92.95 C 75.89 92.37 74.52 92.59 72.49 93.44 C 69.21 94.81 68.86 94.81 69.37 93.47Z"/></g>
<g fill="#A09683FF">
<path d="M 64.88 15.25 C 64.82 14.84 64.82 14.16 64.88 13.75 C 64.95 13.34 63.88 13.00 62.50 13.00 C 58.21 13.00 59.76 11.22 65.05 10.08 C 71.10 8.78 79.67 8.66 80.42 9.86 C 80.89 10.63 72.33 12.17 67.75 12.14 C 66.17 12.13 65.55 13.16 65.88 15.25 C 65.95 15.66 65.78 16.00 65.50 16.00 C 65.22 16.00 64.95 15.66 64.88 15.25Z"/></g>
<g fill="#241D13FF">
<path d="M 69.75 23.31 C 67.22 22.65 67.58 19.35 70.25 18.63 C 74.42 17.51 77.26 17.88 76.65 19.47 C 76.34 20.28 76.52 21.20 77.04 21.53 C 80.18 23.46 75.09 24.71 69.75 23.31Z"/></g>
<g fill="#C9C5BAFF">
<path d="M 83.57 56.50 C 83.09 54.85 82.23 53.20 81.67 52.83 C 80.31 51.94 79.94 49.15 81.09 48.44 C 81.59 48.14 81.99 47.35 81.98 46.69 C 81.98 45.98 81.58 46.10 81.00 47.00 C 80.22 48.21 80.03 48.07 80.02 46.25 C 80.01 45.01 80.41 44.00 80.92 44.00 C 81.42 44.00 82.66 43.73 83.67 43.41 C 84.85 43.02 85.08 43.12 84.30 43.68 C 83.52 44.25 83.42 45.06 84.04 46.03 C 85.36 48.11 85.22 49.25 83.75 48.37 C 82.83 47.81 82.84 48.04 83.81 49.23 C 84.59 50.19 84.98 52.61 84.78 55.18 C 84.45 59.42 84.42 59.44 83.57 56.50Z"/></g>
<g fill="#6E5F45FF">
<path d="M 87.42 25.50 C 87.42 13.95 87.57 9.36 87.75 15.30 C 87.92 21.25 87.92 30.70 87.75 36.30 C 87.57 41.91 87.42 37.05 87.42 25.50Z"/></g>
<g fill="#A09683FF">
<path d="M 30.34 70.25 C 31.72 65.17 31.94 63.00 31.09 63.00 C 30.57 63.00 29.94 63.79 29.69 64.75 C 29.44 65.71 29.18 64.14 29.12 61.25 C 29.01 56.25 29.12 56.00 31.57 56.00 C 33.84 56.00 33.97 56.17 32.66 57.48 C 31.11 59.03 31.55 63.40 33.15 62.40 C 34.09 61.83 33.46 65.45 31.88 69.75 C 30.90 72.39 29.65 72.80 30.34 70.25Z"/></g>
<g fill="#C9C5BAFF">
<path d="M 43.49 75.01 C 43.83 74.46 43.46 74.27 42.65 74.58 C 41.86 74.89 40.91 74.66 40.54 74.07 C 40.18 73.48 40.39 73.00 41.00 73.00 C 41.61 73.00 41.87 72.59 41.56 72.09 C 40.80 70.87 41.96 68.00 43.21 68.00 C 43.76 68.00 43.96 68.65 43.66 69.45 C 43.30 70.37 43.58 70.71 44.43 70.39 C 45.25 70.07 46.17 71.04 46.83 72.94 C 47.83 75.82 47.75 76.00 45.39 76.00 C 43.99 76.00 43.15 75.56 43.49 75.01Z"/></g>
<g fill="#A09683FF">
<path d="M 30.78 26.84 C 30.57 26.20 30.58 24.38 30.82 22.79 C 31.46 18.41 34.42 19.50 34.81 24.26 C 35.07 27.42 34.82 28.00 33.14 28.00 C 32.06 28.00 30.99 27.48 30.78 26.84Z"/></g>
<g fill="#6E5F45FF">
<path d="M 26.68 20.40 C 27.32 3.46 27.83 2.45 27.91 18.00 C 27.94 24.88 27.57 31.13 27.08 31.90 C 26.56 32.73 26.39 28.07 26.68 20.40Z"/></g>
<g fill="#A09683FF">
<path d="M 40.25 11.27 C 37.91 11.06 36.00 10.46 36.00 9.94 C 36.00 8.44 45.49 8.85 48.64 10.49 L 51.50 11.99 L 48.00 11.82 C 46.08 11.73 42.59 11.48 40.25 11.27Z"/></g>
<g fill="#241D13FF">
<path d="M 41.10 63.75 C 41.01 61.37 40.59 61.00 37.92 61.00 C 33.51 61.00 34.73 58.58 39.33 58.19 C 43.30 57.85 43.69 58.72 42.00 64.00 L 41.20 66.50 L 41.10 63.75Z"/></g>
<g fill="#6E5F45FF">
<path d="M 26.39 64.50 C 26.39 57.35 26.55 54.56 26.74 58.29 C 26.94 62.03 26.93 67.88 26.74 71.29 C 26.54 74.71 26.39 71.65 26.39 64.50Z"/></g>
<g fill="#A09683FF">
<path d="M 88.39 86.00 C 88.39 79.12 88.55 76.31 88.74 79.75 C 88.94 83.19 88.94 88.81 88.74 92.25 C 88.55 95.69 88.39 92.88 88.39 86.00Z"/></g>
<g fill="#A09683FF">
<path d="M 35.42 65.56 C 34.63 62.39 35.55 61.00 38.47 61.00 C 39.97 61.00 40.74 61.53 40.61 62.47 C 40.28 64.69 39.00 65.58 39.00 63.60 C 39.00 62.02 38.85 62.00 37.44 63.42 C 35.51 65.34 36.55 67.35 39.11 66.68 C 40.15 66.41 40.75 66.59 40.44 67.09 C 39.27 68.98 36.04 67.99 35.42 65.56Z"/></g>
<g fill="#C9C5BAFF">
<path d="M 55.67 37.33 C 54.48 36.14 54.96 33.23 56.45 32.66 C 57.32 32.32 58.14 32.87 58.51 34.04 C 59.44 36.96 57.52 39.19 55.67 37.33Z"/></g>
<g fill="#6E5F45FF">
<path d="M 30.19 29.51 C 30.32 26.19 30.39 26.12 31.75 28.05 C 33.22 30.16 32.83 33.00 31.06 33.00 C 30.51 33.00 30.12 31.43 30.19 29.51Z"/></g>
<g fill="#6E5F45FF">
<path d="M 61.15 76.39 C 59.99 75.08 60.06 74.91 61.65 75.18 C 62.72 75.37 63.39 74.97 63.25 74.25 C 63.11 73.56 63.67 73.00 64.50 73.00 C 66.27 73.00 66.35 73.48 64.96 76.07 C 63.73 78.37 62.95 78.44 61.15 76.39Z"/></g>
<g fill="#C9C5BAFF">
<path d="M 77.10 50.25 C 77.18 46.38 77.35 45.96 78.00 48.00 C 79.16 51.61 79.16 55.00 78.00 55.00 C 77.45 55.00 77.04 52.86 77.10 50.25Z"/></g>
<g fill="#C9C5BAFF">
<path d="M 31.80 61.32 C 31.14 58.78 31.90 57.00 33.65 57.00 C 34.72 57.00 34.95 57.62 34.45 59.25 C 33.47 62.52 32.34 63.40 31.80 61.32Z"/></g>
<g fill="#241D13FF">
<path d="M 71.11 94.00 C 72.08 93.43 74.48 93.40 77.11 93.92 L 81.50 94.78 L 75.50 94.86 C 71.31 94.92 69.98 94.66 71.11 94.00Z"/></g>
<g fill="#C9C5BAFF">
<path d="M 25.33 73.50 C 25.33 69.65 25.51 68.20 25.73 70.27 C 25.95 72.35 25.94 75.50 25.72 77.27 C 25.50 79.05 25.32 77.35 25.33 73.50Z"/></g>
<g fill="#6E5F45FF">
<path d="M 32.10 38.92 C 30.85 37.23 29.98 35.69 30.16 35.51 C 30.94 34.74 34.67 38.69 34.67 40.28 C 34.67 42.48 34.77 42.53 32.10 38.92Z"/></g>
<g fill="#C9C5BAFF">
<path d="M 79.72 38.72 C 79.40 37.87 80.10 37.48 81.81 37.56 C 83.23 37.62 84.56 38.19 84.78 38.83 C 85.31 40.44 80.34 40.33 79.72 38.72Z"/></g>
<g fill="#C9C5BAFF">
<path d="M 36.50 65.99 C 36.15 65.44 36.58 64.28 37.44 63.42 C 38.30 62.56 39.00 62.30 39.00 62.85 C 39.00 63.39 39.27 64.55 39.61 65.42 C 40.29 67.19 37.55 67.69 36.50 65.99Z"/></g>
<g fill="#6E5F45FF">
<path d="M 26.31 90.50 C 26.32 87.20 26.50 85.97 26.72 87.77 C 26.95 89.57 26.94 92.27 26.71 93.77 C 26.49 95.27 26.30 93.80 26.31 90.50Z"/></g>
<g fill="#A09683FF">
<path d="M 26.31 16.50 C 26.32 13.20 26.50 11.97 26.72 13.77 C 26.95 15.57 26.94 18.27 26.71 19.77 C 26.49 21.27 26.30 19.80 26.31 16.50Z"/></g>
<g fill="#C9C5BAFF">
<path d="M 54.00 12.01 C 52.91 11.31 53.52 11.09 56.25 11.19 C 58.31 11.26 60.00 11.70 60.00 12.16 C 60.00 13.30 55.86 13.20 54.00 12.01Z"/></g>
<g fill="#887C5FFF">
<path d="M 58.00 15.17 C 58.00 14.71 59.01 14.42 60.25 14.53 C 61.49 14.64 62.99 14.35 63.58 13.88 C 64.26 13.35 64.67 13.60 64.67 14.52 C 64.67 15.53 63.61 16.00 61.33 16.00 C 59.50 16.00 58.00 15.63 58.00 15.17Z"/></g>
</svg>
