<?xml version="1.0" encoding="utf-8"?>
<!DOCTYPE svg PUBLIC "-//W3C//DTD SVG 20010904//EN" "http://www.w3.org/TR/2001/REC-SVG-20010904/DTD/svg10.dtd">
<svg version="1.0" xmlns="http://www.w3.org/2000/svg" width="102pt" height="102pt" viewBox="0 0 102 102" preserveAspectRatio="xMidYMid meet">
<g fill="#231F16FF">
<path d="M 78.20 88.25 L 78.00 83.00 L 74.25 82.86 L 70.50 82.72 L 74.50 82.11 C 78.83 81.45 78.32 80.46 73.50 80.17 C 71.85 80.07 69.15 79.60 67.50 79.14 L 64.50 78.29 L 68.50 77.15 C 70.70 76.52 73.49 76.01 74.69 76.01 C 76.81 76.00 76.89 75.59 77.19 63.90 C 77.36 57.25 77.18 51.61 76.79 51.37 C 76.39 51.12 73.21 50.90 69.70 50.88 C 65.68 50.85 63.25 50.40 63.11 49.66 C 62.50 46.36 61.32 17.37 61.78 16.60 C 62.07 16.10 61.79 16.01 61.15 16.40 C 60.52 16.80 60.00 16.64 60.00 16.06 C 60.00 15.48 59.60 15.00 59.12 15.00 C 58.63 15.00 57.93 17.84 57.56 21.31 L 56.88 27.62 L 53.19 27.83 C 51.14 27.95 47.86 27.21 45.80 26.16 C 42.50 24.47 42.05 24.44 41.50 25.86 C 40.97 27.24 40.77 27.25 39.96 25.97 C 39.15 24.68 39.03 24.69 39.00 26.00 C 38.97 27.33 38.86 27.33 38.00 26.00 C 36.83 24.19 36.82 24.23 36.54 35.35 L 36.32 44.21 L 39.41 43.74 C 42.95 43.20 45.25 43.78 44.49 45.02 C 44.20 45.49 42.35 45.61 40.38 45.29 C 36.18 44.61 35.40 45.47 35.46 50.71 C 35.51 54.08 35.83 54.55 38.51 55.12 C 41.47 55.76 41.48 55.76 38.81 55.88 C 36.44 55.99 36.05 56.50 35.50 60.25 C 35.16 62.59 35.09 68.15 35.34 72.60 C 35.60 77.06 35.37 81.33 34.84 82.10 C 34.21 83.01 34.06 72.24 34.42 51.50 C 34.72 33.90 35.01 16.58 35.06 13.00 C 35.12 9.42 35.38 7.06 35.66 7.75 C 36.02 8.65 39.74 9.04 48.83 9.14 C 55.80 9.21 60.54 9.46 59.36 9.69 C 57.86 9.99 57.36 10.66 57.70 11.94 C 58.21 13.92 61.06 14.04 71.70 12.51 C 75.92 11.90 76.96 11.36 77.25 9.63 C 77.80 6.32 79.21 75.43 78.78 85.00 C 78.54 90.49 78.33 91.64 78.20 88.25Z"/></g>
<g fill="#594B35FF">
<path d="M 41.93 64.00 C 41.85 57.81 41.67 57.02 40.90 59.50 C 40.39 61.15 40.24 63.62 40.57 65.00 C 40.90 66.37 40.82 67.16 40.41 66.74 C 40.00 66.33 38.61 66.68 37.33 67.52 L 35.00 69.05 L 35.12 64.27 C 35.18 61.65 35.44 60.29 35.69 61.25 C 35.94 62.21 36.61 63.00 37.18 63.00 C 37.77 63.00 37.91 62.25 37.49 61.25 C 35.63 56.73 35.76 56.16 38.65 55.83 C 41.28 55.53 41.52 55.14 41.80 50.82 C 42.09 46.37 41.96 46.11 39.30 45.70 C 37.76 45.46 38.19 45.39 40.25 45.54 C 42.31 45.69 44.23 45.44 44.51 44.99 C 45.26 43.78 42.92 43.20 39.41 43.74 L 36.32 44.21 L 36.54 35.35 C 36.82 24.23 36.83 24.19 38.00 26.00 C 38.86 27.33 38.97 27.33 39.00 26.00 C 39.03 24.69 39.15 24.68 39.96 25.97 C 40.76 27.23 40.99 27.19 41.56 25.70 C 42.10 24.30 42.52 24.19 43.67 25.14 C 44.46 25.80 47.22 26.91 49.81 27.60 L 54.50 28.87 L 50.86 28.93 C 46.36 29.02 44.85 31.65 47.90 34.12 C 49.01 35.02 49.60 36.09 49.21 36.50 C 48.82 36.91 49.62 36.95 51.00 36.58 C 53.08 36.02 53.21 36.09 51.75 37.00 C 49.68 38.30 49.57 39.68 51.24 43.23 C 52.60 46.11 56.59 47.50 57.41 45.38 C 57.68 44.66 57.56 43.84 57.12 43.57 C 56.68 43.31 56.42 42.05 56.53 40.79 C 56.64 39.53 56.29 37.66 55.76 36.63 C 55.04 35.21 55.11 34.95 56.06 35.54 C 56.97 36.10 57.16 35.72 56.75 34.16 C 56.44 32.97 56.62 31.73 57.16 31.40 C 57.72 31.05 57.36 29.93 56.32 28.73 C 55.32 27.59 55.03 26.96 55.67 27.34 C 56.49 27.81 57.05 26.06 57.54 21.51 C 57.92 17.93 58.63 15.00 59.12 15.00 C 59.60 15.00 60.00 15.48 60.00 16.06 C 60.00 16.64 60.52 16.80 61.15 16.40 C 61.79 16.01 62.07 16.10 61.78 16.60 C 61.33 17.37 62.49 46.15 63.11 49.75 C 63.23 50.44 63.82 51.01 64.42 51.02 C 65.01 51.02 64.83 51.45 64.02 51.97 C 62.96 52.64 62.36 55.58 61.93 62.20 C 61.60 67.32 61.25 70.73 61.16 69.80 C 60.85 66.54 45.19 67.12 42.77 70.48 C 42.36 71.04 41.99 68.12 41.93 64.00ZM 58.05 64.00 C 60.83 64.00 61.00 63.76 61.00 60.00 L 61.00 56.00 L 57.00 56.00 C 54.80 56.00 53.05 56.34 53.12 56.75 C 53.41 58.60 52.90 59.39 52.16 58.22 C 51.51 57.19 50.76 57.24 48.42 58.46 L 45.50 59.99 L 49.25 59.99 C 51.95 60.00 53.00 60.43 53.00 61.54 C 53.00 62.69 52.57 62.84 51.24 62.13 C 50.02 61.47 48.87 61.62 47.54 62.59 C 45.80 63.87 45.78 64.00 47.37 64.00 C 48.48 64.00 48.86 64.46 48.41 65.25 C 47.85 66.25 47.98 66.25 49.05 65.25 C 50.53 63.88 53.07 63.55 52.88 64.75 C 52.56 66.80 53.17 67.31 54.08 65.75 C 54.69 64.71 56.29 64.00 58.05 64.00Z"/></g>
<g fill="#837867FF">
<path d="M 58.60 77.61 C 58.95 76.70 58.71 76.00 58.05 76.00 C 57.41 76.00 57.20 75.48 57.60 74.85 C 58.03 74.14 57.87 73.96 57.18 74.39 C 56.57 74.77 53.91 73.94 51.29 72.54 C 45.76 69.60 43.80 69.32 44.68 71.60 C 45.24 73.06 45.03 73.07 42.27 71.64 C 40.61 70.78 38.97 70.36 38.63 70.71 C 38.28 71.05 38.00 70.53 38.00 69.54 C 38.00 68.30 37.61 68.02 36.70 68.63 C 35.99 69.11 36.26 68.71 37.31 67.76 C 38.35 66.80 39.63 66.27 40.14 66.59 C 40.68 66.92 40.84 66.16 40.53 64.83 C 40.22 63.55 40.39 61.15 40.90 59.50 C 41.67 57.02 41.85 57.81 41.93 64.00 C 41.99 68.12 42.36 71.04 42.77 70.48 C 45.01 67.36 61.00 66.50 61.00 69.49 C 61.00 73.27 65.12 72.17 66.70 67.97 C 67.41 66.11 68.51 65.03 69.66 65.07 C 71.33 65.13 71.32 65.22 69.50 66.00 C 67.64 66.80 67.63 66.86 69.37 66.93 C 70.75 66.98 70.97 67.33 70.21 68.25 C 69.64 68.94 69.02 69.95 68.84 70.50 C 68.65 71.05 68.16 71.39 67.75 71.25 C 67.34 71.11 67.00 71.48 67.00 72.06 C 67.00 72.64 66.64 72.90 66.20 72.62 C 65.76 72.35 64.78 72.52 64.02 72.99 C 62.92 73.67 62.88 74.15 63.84 75.30 C 64.81 76.47 64.70 76.85 63.27 77.26 C 62.30 77.54 60.71 78.10 59.74 78.50 C 58.39 79.05 58.12 78.85 58.60 77.61Z"/></g>
<g fill="#C1B9ACFF">
<path d="M 79.92 89.00 C 78.76 82.04 78.78 7.43 79.93 8.56 C 80.69 9.30 80.94 22.15 80.76 51.06 C 80.62 73.85 80.24 90.92 79.92 89.00Z"/></g>
<g fill="#837867FF">
<path d="M 33.20 92.80 C 31.67 91.27 31.45 9.46 32.98 8.51 C 33.61 8.12 33.86 21.74 33.68 47.20 C 33.53 68.82 33.70 88.19 34.07 90.25 C 34.82 94.48 34.83 94.43 33.20 92.80Z"/></g>
<g fill="#C1B9ACFF">
<path d="M 67.00 94.20 C 66.17 93.23 64.26 91.65 62.75 90.69 C 61.24 89.74 60.00 88.29 60.00 87.48 C 60.00 86.66 59.52 86.00 58.94 86.00 C 58.36 86.00 58.16 85.55 58.50 85.00 C 58.84 84.45 58.70 84.00 58.20 84.00 C 57.69 84.00 57.49 82.88 57.76 81.50 C 58.28 78.76 58.75 78.55 61.00 80.00 C 62.06 80.69 62.12 80.97 61.21 80.98 C 60.16 81.00 60.16 81.26 61.21 82.37 C 61.91 83.13 63.13 83.50 63.91 83.20 C 64.77 82.87 65.06 83.09 64.65 83.76 C 64.28 84.36 64.49 85.99 65.13 87.38 C 66.11 89.55 66.58 89.76 68.32 88.83 C 70.01 87.92 70.69 88.13 72.21 90.01 C 74.01 92.24 74.01 92.34 72.07 94.15 C 69.62 96.44 68.90 96.44 67.00 94.20Z"/></g>
<g fill="#C1B9ACFF">
<path d="M 32.11 92.63 C 31.30 91.65 31.05 80.27 31.25 52.38 L 31.52 13.50 L 31.76 52.55 C 31.94 81.31 32.32 91.92 33.20 92.80 C 33.86 93.46 34.14 94.00 33.82 94.00 C 33.50 94.00 32.73 93.38 32.11 92.63Z"/></g>
<g fill="#837867FF">
<path d="M 67.36 74.50 C 68.18 73.67 69.53 73.00 70.35 73.00 C 72.66 73.00 75.00 71.89 75.00 70.79 C 75.00 70.24 74.44 70.00 73.75 70.27 C 72.84 70.62 72.59 69.57 72.85 66.37 C 73.04 63.97 73.61 62.00 74.10 62.00 C 74.60 62.00 75.00 60.61 75.00 58.91 C 75.00 56.70 74.45 55.67 73.09 55.31 C 70.75 54.70 69.52 51.00 71.65 51.00 C 72.46 51.00 72.83 51.47 72.48 52.04 C 72.07 52.70 72.68 52.87 74.17 52.49 L 76.50 51.91 L 76.18 61.70 C 75.93 69.27 75.49 71.78 74.24 72.75 C 72.93 73.76 72.90 74.00 74.06 74.02 C 75.27 74.03 75.27 74.18 74.00 75.00 C 73.17 75.53 71.01 75.98 69.18 75.98 C 66.23 76.00 66.02 75.83 67.36 74.50Z"/></g>
<g fill="#594B35FF">
<path d="M 35.55 78.18 C 35.93 71.67 35.89 71.81 37.00 72.50 C 37.55 72.84 38.05 72.53 38.12 71.81 C 38.18 71.09 38.53 71.85 38.88 73.50 C 39.39 75.85 40.07 76.50 42.00 76.50 C 45.17 76.50 45.92 79.52 42.95 80.30 C 41.77 80.61 41.03 81.23 41.30 81.68 C 41.58 82.13 40.34 82.58 38.55 82.68 L 35.28 82.87 L 35.55 78.18Z"/></g>
<g fill="#837867FF">
<path d="M 52.91 66.50 C 52.83 65.95 52.82 65.16 52.88 64.75 C 53.07 63.55 50.53 63.88 49.05 65.25 C 47.98 66.25 47.85 66.25 48.41 65.25 C 48.86 64.46 48.48 64.00 47.37 64.00 C 45.78 64.00 45.80 63.87 47.54 62.59 C 48.87 61.62 50.02 61.47 51.24 62.13 C 52.57 62.84 53.00 62.69 53.00 61.54 C 53.00 60.43 51.95 60.00 49.25 59.99 L 45.50 59.99 L 48.42 58.46 C 50.76 57.24 51.51 57.19 52.16 58.22 C 52.90 59.39 53.41 58.60 53.12 56.75 C 53.05 56.34 53.73 56.00 54.62 56.00 C 55.78 56.00 55.96 56.36 55.26 57.25 C 53.30 59.73 54.18 62.00 57.10 62.00 C 59.48 62.00 59.93 61.54 60.28 58.75 C 60.63 55.93 60.70 56.07 60.84 59.75 C 60.99 63.83 60.88 64.00 58.05 64.00 C 56.29 64.00 54.69 64.71 54.08 65.75 C 53.52 66.71 52.99 67.05 52.91 66.50Z"/></g>
<g fill="#594B35FF">
<path d="M 57.68 11.89 C 57.32 10.52 57.72 10.00 59.09 10.00 C 60.14 10.00 61.00 10.45 61.00 11.00 C 61.00 11.55 62.80 12.00 65.00 12.00 C 67.82 12.00 69.00 11.57 69.00 10.56 C 69.00 8.47 70.38 7.93 73.90 8.63 C 78.38 9.53 78.09 12.35 73.57 11.82 C 71.68 11.60 70.36 11.77 70.63 12.21 C 70.90 12.64 70.30 13.04 69.31 13.08 C 68.31 13.13 65.40 13.30 62.84 13.47 C 58.96 13.73 58.09 13.46 57.68 11.89Z"/></g>
<g fill="#837867FF">
<path d="M 62.27 63.00 C 62.13 54.86 63.11 50.24 64.31 53.37 C 64.68 54.32 65.54 55.02 66.24 54.93 C 69.58 54.49 71.19 55.07 70.64 56.50 C 70.30 57.38 70.62 58.00 71.42 58.00 C 72.17 58.00 73.05 58.70 73.38 59.55 C 73.71 60.41 73.57 60.85 73.06 60.54 C 72.56 60.23 71.94 60.77 71.69 61.74 C 71.30 63.24 71.21 63.20 71.11 61.50 C 71.02 60.17 69.65 58.94 67.03 57.84 L 63.08 56.18 L 62.74 63.34 L 62.40 70.50 L 62.27 63.00Z"/></g>
<g fill="#837867FF">
<path d="M 40.40 54.23 C 39.79 53.83 39.04 52.83 38.73 52.00 C 38.27 50.81 38.14 50.86 38.08 52.25 C 37.91 55.89 36.00 53.82 36.00 50.00 C 36.00 46.22 36.17 46.00 39.00 46.00 C 41.89 46.00 42.00 46.17 42.00 50.50 C 42.00 52.98 41.89 54.99 41.75 54.98 C 41.61 54.98 41.00 54.64 40.40 54.23Z"/></g>
<g fill="#594B35FF">
<path d="M 65.38 82.23 C 65.89 81.38 65.09 80.52 62.95 79.62 L 59.76 78.28 L 63.03 77.14 C 64.83 76.51 67.47 76.04 68.90 76.09 C 71.20 76.17 71.10 76.30 68.00 77.23 L 64.50 78.27 L 67.50 79.15 C 69.15 79.63 71.98 80.09 73.79 80.17 C 75.60 80.26 77.29 80.66 77.54 81.06 C 78.22 82.16 70.10 82.70 69.02 81.62 C 68.44 81.04 67.43 81.22 66.35 82.09 C 65.18 83.04 64.86 83.09 65.38 82.23Z"/></g>
<g fill="#594B35FF">
<path d="M 78.40 26.50 C 78.41 17.70 78.56 14.23 78.74 18.80 C 78.93 23.36 78.93 30.56 78.74 34.80 C 78.56 39.03 78.40 35.30 78.40 26.50Z"/></g>
<g fill="#A49882FF">
<path d="M 54.30 60.25 C 54.26 57.76 55.82 56.11 58.07 56.28 C 59.48 56.39 60.00 57.17 60.00 59.21 C 60.00 61.61 59.60 62.00 57.17 62.00 C 55.15 62.00 54.32 61.50 54.30 60.25Z"/></g>
<g fill="#594B35FF">
<path d="M 74.00 75.00 C 75.27 74.18 75.27 74.03 74.06 74.02 C 72.92 74.00 72.97 73.74 74.28 72.75 C 75.57 71.78 76.02 69.46 76.27 62.50 C 76.59 53.55 76.59 53.56 76.79 64.75 C 77.00 75.81 76.96 76.00 74.75 75.98 C 72.93 75.97 72.79 75.78 74.00 75.00Z"/></g>
<g fill="#C1B9ACFF">
<path d="M 63.04 68.13 C 63.01 64.47 63.23 63.95 64.41 64.93 C 65.91 66.17 67.21 65.03 67.66 62.10 C 67.84 60.88 70.10 58.76 70.63 59.30 C 71.40 60.09 69.49 65.00 68.41 65.00 C 67.66 65.00 66.16 66.69 65.07 68.75 L 63.09 72.50 L 63.04 68.13Z"/></g>
<g fill="#594B35FF">
<path d="M 33.77 19.79 C 34.01 13.03 34.39 7.31 34.61 7.08 C 35.39 6.25 34.95 29.54 34.15 30.79 C 33.70 31.50 33.53 26.55 33.77 19.79Z"/></g>
<g fill="#594B35FF">
<path d="M 67.00 72.00 C 67.00 71.45 67.54 71.11 68.20 71.25 C 68.87 71.39 69.44 71.05 69.47 70.50 C 69.50 69.95 69.87 68.97 70.28 68.33 C 70.73 67.62 70.32 66.97 69.26 66.69 C 67.83 66.32 67.80 66.21 69.11 66.12 C 70.00 66.05 71.13 64.57 71.66 62.75 C 72.57 59.65 72.62 59.75 72.75 64.77 C 72.83 67.86 72.50 69.81 71.94 69.47 C 71.42 69.14 71.00 69.81 71.00 70.94 C 71.00 72.33 70.35 73.00 69.00 73.00 C 67.90 73.00 67.00 72.55 67.00 72.00Z"/></g>
<g fill="#837867FF">
<path d="M 47.20 33.80 C 46.54 33.14 46.01 32.13 46.03 31.55 C 46.05 30.97 46.52 31.29 47.08 32.25 C 48.35 34.43 51.58 34.53 52.39 32.42 C 53.27 30.13 53.15 29.73 51.75 30.25 C 51.06 30.51 49.60 30.37 48.50 29.93 C 46.86 29.28 47.06 29.13 49.67 29.07 C 51.41 29.03 53.44 28.85 54.17 28.66 C 54.90 28.48 55.16 28.52 54.75 28.75 C 53.51 29.44 53.90 33.79 55.25 34.34 C 55.94 34.62 54.68 34.88 52.45 34.92 C 50.22 34.96 47.86 34.46 47.20 33.80Z"/></g>
<g fill="#594B35FF">
<path d="M 72.10 88.61 C 70.63 87.05 70.23 85.98 70.94 85.54 C 71.54 85.17 71.77 84.44 71.46 83.93 C 70.63 82.58 72.35 82.79 74.17 84.25 C 75.80 85.57 77.37 89.00 76.33 89.00 C 75.99 89.00 75.11 88.21 74.35 87.25 C 73.15 85.71 73.11 85.83 73.97 88.25 C 75.17 91.61 74.96 91.65 72.10 88.61Z"/></g>
<g fill="#C1B9ACFF">
<path d="M 44.50 76.78 C 43.40 76.18 41.83 75.37 41.00 74.99 C 40.17 74.61 39.36 73.33 39.18 72.15 C 38.94 70.51 39.25 70.16 40.51 70.64 C 41.72 71.11 41.84 71.48 40.96 72.03 C 39.32 73.04 40.69 75.06 42.53 74.35 C 43.33 74.04 43.70 73.32 43.34 72.74 C 42.96 72.12 43.17 71.99 43.86 72.41 C 44.51 72.81 44.81 73.51 44.53 73.96 C 43.74 75.22 46.79 77.29 48.49 76.64 C 49.32 76.32 50.00 76.50 50.00 77.03 C 50.00 78.30 47.02 78.17 44.50 76.78Z"/></g>
<g fill="#837867FF">
<path d="M 40.78 8.26 C 43.69 8.06 48.19 8.06 50.78 8.27 C 53.38 8.47 51.00 8.64 45.50 8.63 C 40.00 8.63 37.88 8.46 40.78 8.26Z"/></g>
<g fill="#837867FF">
<path d="M 65.88 86.22 C 66.72 84.65 66.49 84.07 64.62 83.07 C 63.36 82.39 62.33 81.23 62.33 80.47 C 62.33 79.45 62.80 79.36 64.19 80.10 C 65.22 80.65 65.82 81.48 65.54 81.94 C 65.26 82.40 65.92 83.01 67.01 83.29 C 69.59 83.97 69.55 85.64 66.92 87.04 C 65.06 88.04 64.95 87.96 65.88 86.22Z"/></g>
<g fill="#A49882FF">
<path d="M 64.61 53.43 C 64.26 52.51 64.76 51.95 66.03 51.85 C 67.11 51.77 68.56 51.66 69.25 51.60 C 69.94 51.55 70.50 52.17 70.50 52.98 C 70.50 54.94 65.35 55.34 64.61 53.43Z"/></g>
<g fill="#A49882FF">
<path d="M 48.25 33.34 C 45.86 32.37 47.02 30.48 50.06 30.35 C 52.37 30.26 52.99 30.59 52.56 31.70 C 52.25 32.50 52.00 33.35 52.00 33.58 C 52.00 34.12 49.85 33.98 48.25 33.34Z"/></g>
<g fill="#A49882FF">
<path d="M 65.60 88.18 C 65.27 87.26 64.74 85.94 64.42 85.25 C 64.08 84.54 64.50 84.00 65.39 84.00 C 66.35 84.00 66.72 84.56 66.36 85.50 C 65.48 87.80 67.69 87.28 69.44 84.78 C 71.27 82.16 71.46 82.89 69.86 86.40 C 68.44 89.52 66.38 90.38 65.60 88.18Z"/></g>
<g fill="#C1B9ACFF">
<path d="M 51.00 42.07 C 51.00 41.56 51.65 40.49 52.45 39.69 C 53.25 38.89 53.63 37.96 53.29 37.62 C 52.95 37.28 53.42 37.00 54.33 37.00 C 56.20 37.00 56.56 38.53 54.93 39.54 C 54.34 39.91 54.11 40.83 54.40 41.60 C 54.75 42.51 54.24 43.00 52.97 43.00 C 51.89 43.00 51.00 42.58 51.00 42.07Z"/></g>
<g fill="#837867FF">
<path d="M 73.92 91.75 C 73.87 91.61 73.75 90.23 73.63 88.68 C 73.46 86.34 73.62 86.13 74.57 87.43 C 75.20 88.29 76.23 89.00 76.86 89.00 C 77.49 89.00 78.00 89.67 78.00 90.50 C 78.00 91.67 74.27 92.82 73.92 91.75Z"/></g>
<g fill="#C1B9ACFF">
<path d="M 48.00 80.85 C 48.00 79.46 50.12 78.81 52.60 79.44 C 53.96 79.78 54.81 80.50 54.48 81.04 C 53.79 82.15 48.00 81.97 48.00 80.85Z"/></g>
<g fill="#A49882FF">
<path d="M 73.29 60.75 C 73.27 60.06 73.14 59.05 73.01 58.50 C 72.51 56.47 73.03 54.90 74.00 55.50 C 75.20 56.24 75.35 62.00 74.17 62.00 C 73.71 62.00 73.32 61.44 73.29 60.75Z"/></g>
<g fill="#231F16FF">
<path d="M 54.25 46.20 C 53.01 46.01 52.00 45.49 52.00 45.05 C 52.00 44.03 56.90 43.03 57.46 43.93 C 58.27 45.24 56.46 46.52 54.25 46.20Z"/></g>
<g fill="#C1B9ACFF">
<path d="M 63.00 61.06 C 63.00 59.79 63.64 59.17 64.85 59.26 C 66.12 59.36 66.56 59.98 66.24 61.20 C 65.61 63.62 63.00 63.50 63.00 61.06Z"/></g>
<g fill="#A49882FF">
<path d="M 63.83 58.89 C 63.24 58.53 62.92 57.83 63.13 57.33 C 63.33 56.83 65.08 57.21 67.00 58.17 C 70.43 59.88 70.44 59.91 67.70 59.73 C 66.16 59.64 64.42 59.26 63.83 58.89Z"/></g>
<g fill="#A49882FF">
<path d="M 65.04 68.92 C 65.93 67.25 65.81 66.45 64.42 64.92 C 63.37 63.75 63.15 63.00 63.88 63.00 C 64.53 63.00 65.32 63.67 65.64 64.49 C 65.95 65.32 66.57 65.76 67.02 65.49 C 67.47 65.21 67.32 66.34 66.70 67.99 C 66.07 69.65 65.19 71.00 64.75 71.00 C 64.30 71.00 64.43 70.06 65.04 68.92Z"/></g>
<g fill="#594B35FF">
<path d="M 34.31 38.50 C 34.32 35.20 34.50 33.97 34.72 35.77 C 34.95 37.57 34.94 40.27 34.71 41.77 C 34.49 43.27 34.30 41.80 34.31 38.50Z"/></g>
<g fill="#C1B9ACFF">
<path d="M 35.31 88.50 C 35.32 85.20 35.50 83.97 35.72 85.77 C 35.95 87.57 35.94 90.27 35.71 91.77 C 35.49 93.27 35.30 91.80 35.31 88.50Z"/></g>
</svg>
