<?xml version="1.0" encoding="utf-8"?>
<!DOCTYPE svg PUBLIC "-//W3C//DTD SVG 20010904//EN" "http://www.w3.org/TR/2001/REC-SVG-20010904/DTD/svg10.dtd">
<svg version="1.0" xmlns="http://www.w3.org/2000/svg" width="102pt" height="102pt" viewBox="0 0 102 102" preserveAspectRatio="xMidYMid meet">
<g fill="#8B8167FF">
<path d="M 55.67 93.33 C 54.62 92.29 54.87 91.27 56.57 89.57 C 57.94 88.20 57.95 88.00 56.64 88.00 C 55.74 88.00 55.01 86.89 54.82 85.25 C 54.55 82.96 53.96 82.45 51.25 82.19 C 47.44 81.82 47.37 81.62 50.00 78.27 C 52.55 75.03 52.52 72.94 49.89 69.58 C 48.17 67.40 47.09 66.95 44.14 67.20 C 41.53 67.41 40.23 68.12 39.54 69.69 C 39.01 70.89 37.77 72.09 36.79 72.34 C 35.32 72.73 35.00 73.89 35.00 78.85 L 35.00 84.90 L 38.01 83.85 C 39.67 83.27 41.64 83.03 42.39 83.32 C 43.14 83.61 44.33 83.32 45.02 82.67 C 46.01 81.76 46.12 81.81 45.49 82.91 C 45.04 83.69 44.40 85.69 44.06 87.37 L 43.44 90.41 L 34.72 90.73 L 26.00 91.06 L 26.00 88.53 C 26.00 86.95 26.56 86.00 27.50 86.00 C 28.34 86.00 29.00 85.11 29.00 83.97 C 29.00 82.85 28.32 81.68 27.50 81.36 C 26.48 80.97 26.00 79.38 26.00 76.42 C 26.00 72.68 26.25 72.16 27.75 72.73 C 29.40 73.35 29.40 73.28 27.73 71.60 C 26.37 70.23 26.01 68.44 26.19 63.91 L 26.42 58.00 L 30.80 58.00 C 34.42 58.00 35.28 58.37 35.74 60.11 C 36.21 61.91 36.81 62.13 39.89 61.62 C 41.88 61.29 44.40 60.96 45.50 60.89 C 46.76 60.81 46.39 60.52 44.50 60.12 C 41.50 59.47 41.50 59.46 41.58 52.49 C 41.74 37.59 42.54 27.00 43.50 26.90 C 46.63 26.60 52.63 27.28 53.40 28.03 C 53.92 28.53 55.07 28.50 56.09 27.95 C 57.27 27.32 58.10 27.36 58.54 28.06 C 58.96 28.75 59.60 28.58 60.35 27.57 C 61.24 26.37 62.19 26.23 64.50 26.92 L 67.50 27.83 L 64.25 27.91 C 62.31 27.97 61.00 28.52 61.00 29.29 C 61.00 30.00 59.68 32.13 58.07 34.04 L 55.14 37.50 L 51.98 35.75 C 48.94 34.05 48.72 34.06 46.06 35.96 C 43.48 37.80 43.26 38.54 42.63 47.52 C 42.26 52.79 42.21 57.54 42.53 58.06 C 42.86 58.58 45.45 59.03 48.31 59.07 C 52.13 59.12 52.97 59.37 51.50 60.00 C 49.75 60.75 49.88 60.89 52.50 61.08 C 62.33 61.82 64.00 61.80 63.46 60.94 C 63.14 60.42 64.36 60.04 66.19 60.10 C 69.30 60.19 69.35 60.25 67.00 61.00 C 65.48 61.49 65.15 61.84 66.17 61.90 C 68.38 62.03 74.00 66.80 74.00 68.54 C 74.00 69.29 74.79 70.36 75.75 70.92 C 76.71 71.48 77.05 71.96 76.50 71.98 C 75.95 72.01 76.17 72.47 77.00 73.00 C 78.22 73.79 78.09 73.97 76.31 73.98 C 72.98 74.01 72.55 75.86 75.71 76.56 C 80.53 77.62 80.62 77.84 76.31 77.92 C 74.00 77.96 71.84 78.45 71.50 79.00 C 71.16 79.55 69.67 80.01 68.19 80.03 C 65.61 80.06 65.58 80.12 67.44 81.53 C 68.78 82.54 69.59 82.66 70.05 81.91 C 70.91 80.53 71.75 80.61 73.36 82.21 C 74.14 83.00 77.02 83.47 80.77 83.43 C 84.14 83.39 86.66 83.74 86.37 84.21 C 86.08 84.67 85.32 84.99 84.67 84.91 C 84.03 84.83 82.60 84.84 81.50 84.94 C 79.72 85.11 79.77 85.24 81.94 86.10 C 83.28 86.64 85.64 86.80 87.19 86.46 C 89.73 85.90 90.00 86.10 90.00 88.56 L 90.00 91.27 L 83.30 90.74 C 79.62 90.44 75.57 90.59 74.30 91.07 C 72.66 91.70 72.00 91.59 72.00 90.71 C 72.00 90.02 70.86 87.78 69.46 85.73 C 67.19 82.38 66.48 82.00 62.56 82.00 L 58.20 82.00 L 58.52 85.50 C 58.73 87.73 58.27 89.58 57.26 90.59 C 55.91 91.94 55.89 92.32 57.09 93.08 C 57.86 93.57 58.01 93.98 57.42 93.98 C 56.82 93.99 56.03 93.70 55.67 93.33ZM 49.44 32.47 C 50.51 31.66 50.99 31.00 50.50 31.00 C 50.01 31.00 50.38 30.44 51.32 29.75 C 52.82 28.65 52.65 28.47 49.87 28.28 C 45.85 28.00 43.69 29.22 43.49 31.89 C 43.30 34.43 46.45 34.73 49.44 32.47Z"/></g>
<g fill="#BFBEB8FF">
<path d="M 68.77 60.44 C 68.43 60.10 65.31 59.85 61.83 59.87 C 58.34 59.90 54.84 59.52 54.05 59.03 C 53.14 58.47 54.22 58.35 56.96 58.72 C 60.10 59.14 61.11 58.99 60.59 58.15 C 60.14 57.42 60.66 57.00 62.01 57.00 C 64.91 57.00 68.00 55.22 68.00 53.55 C 68.00 52.79 68.56 51.94 69.25 51.66 C 70.19 51.28 70.13 50.89 69.00 50.09 C 67.67 49.15 67.67 49.03 69.00 49.00 C 70.01 48.98 70.13 48.73 69.37 48.23 C 68.74 47.83 68.04 46.60 67.81 45.50 C 67.47 43.92 66.54 44.81 63.37 49.76 C 61.16 53.20 59.05 55.71 58.67 55.34 C 58.30 54.97 58.66 53.64 59.48 52.39 C 61.31 49.59 64.08 41.75 63.45 41.12 C 63.20 40.87 60.86 40.62 58.25 40.58 C 54.56 40.52 53.03 41.00 51.40 42.73 C 50.25 43.96 49.02 44.69 48.68 44.35 C 48.35 44.01 48.10 45.71 48.14 48.12 C 48.18 50.53 48.05 53.12 47.85 53.88 C 47.66 54.63 48.13 55.48 48.89 55.75 C 49.85 56.10 50.03 55.83 49.48 54.88 C 49.04 54.12 49.06 53.85 49.53 54.28 C 50.00 54.70 50.52 55.94 50.69 57.03 C 50.94 58.71 50.41 59.00 46.99 59.00 L 43.00 59.00 L 43.00 48.52 C 43.00 38.36 43.08 38.00 45.58 36.35 C 47.78 34.92 48.68 34.84 51.53 35.87 C 55.67 37.37 58.27 36.05 60.54 31.28 C 61.91 28.38 62.46 28.07 65.97 28.28 C 69.48 28.48 69.92 28.81 70.46 31.65 C 71.03 34.67 73.27 36.57 74.99 35.51 C 76.02 34.87 75.26 42.49 73.38 51.50 C 72.00 58.14 70.12 61.78 68.77 60.44Z"/></g>
<g fill="#453A27FF">
<path d="M 35.56 59.30 C 35.29 58.58 34.16 58.00 33.06 58.00 C 31.70 58.00 31.24 57.53 31.64 56.50 C 32.38 54.56 31.55 54.59 29.57 56.57 C 28.71 57.44 28.00 57.72 28.00 57.19 C 28.00 56.67 28.68 55.68 29.50 55.00 C 30.32 54.32 31.00 53.19 31.00 52.50 C 31.00 51.81 30.32 50.68 29.50 50.00 C 27.60 48.42 27.58 47.33 29.46 47.33 C 30.26 47.33 30.70 47.68 30.44 48.10 C 30.18 48.52 30.32 49.08 30.75 49.35 C 31.18 49.61 31.58 48.18 31.64 46.17 C 31.93 36.58 32.28 33.83 33.05 35.08 C 33.50 35.81 33.64 34.42 33.37 31.95 C 32.49 24.05 32.13 23.24 28.95 22.13 C 26.01 21.11 25.90 20.87 26.11 15.67 C 26.31 10.73 26.51 10.32 28.42 10.85 C 30.19 11.33 30.24 11.47 28.75 11.78 C 27.41 12.06 27.00 13.16 27.00 16.51 L 27.00 20.88 L 31.25 21.49 C 33.59 21.83 43.69 21.97 53.70 21.80 C 71.82 21.50 76.83 22.34 63.50 23.45 C 58.67 23.85 56.96 23.72 58.00 23.03 C 59.30 22.17 59.27 22.03 57.81 22.02 C 56.88 22.01 55.84 22.45 55.50 23.00 C 55.16 23.55 52.88 24.00 50.44 24.00 C 47.79 24.00 46.00 24.46 46.00 25.14 C 46.00 25.93 47.88 26.09 52.25 25.65 C 56.09 25.27 59.08 25.44 60.00 26.09 C 61.15 26.91 60.84 27.02 58.67 26.54 C 57.01 26.18 56.07 26.31 56.41 26.86 C 57.17 28.09 54.50 29.09 53.37 27.99 C 52.29 26.94 40.82 25.89 41.44 26.90 C 42.90 29.27 41.34 51.12 39.63 52.23 C 38.83 52.76 38.86 52.97 39.75 52.98 C 40.45 52.99 41.00 54.23 41.00 55.80 C 41.00 57.34 41.56 59.16 42.25 59.85 C 43.25 60.85 42.75 61.05 39.78 60.85 C 37.73 60.71 35.83 60.01 35.56 59.30ZM 35.50 56.00 C 35.16 55.45 35.26 55.00 35.72 55.00 C 37.22 55.00 37.02 50.22 35.50 49.64 C 34.67 49.32 34.29 48.41 34.62 47.54 C 34.95 46.69 34.72 46.00 34.11 46.00 C 33.43 46.00 33.00 48.15 33.00 51.50 C 33.00 55.81 33.34 57.00 34.56 57.00 C 35.42 57.00 35.84 56.55 35.50 56.00Z"/></g>
<g fill="#8B8167FF">
<path d="M 34.69 21.36 C 34.47 21.13 32.64 20.89 30.64 20.81 C 27.03 20.68 27.00 20.64 27.00 16.34 L 27.00 12.00 L 35.25 12.06 C 44.34 12.12 51.64 13.13 51.25 14.27 C 51.11 14.67 51.00 15.90 51.00 17.00 C 51.00 18.75 51.67 19.00 56.28 19.00 C 61.76 19.00 65.54 16.58 64.47 13.77 C 64.09 12.80 66.91 12.42 76.49 12.15 L 89.00 11.81 L 89.00 14.85 C 89.00 16.52 88.64 18.10 88.20 18.38 C 85.84 19.84 35.95 22.62 34.69 21.36Z"/></g>
<g fill="#14110AFF">
<path d="M 90.92 93.75 C 90.88 92.51 90.75 89.70 90.64 87.50 C 90.52 85.30 90.33 79.34 90.21 74.25 L 90.00 65.00 L 82.04 65.00 C 75.09 65.00 73.93 64.74 73.00 63.00 C 71.98 61.10 72.36 60.55 74.42 60.94 C 74.92 61.03 76.72 61.25 78.42 61.42 C 80.11 61.59 82.29 62.06 83.25 62.47 C 84.66 63.07 85.00 62.71 85.00 60.61 C 85.00 57.85 86.78 57.18 88.78 59.18 C 89.69 60.09 89.96 56.40 89.95 43.27 C 89.94 29.28 89.67 26.09 88.48 25.63 C 87.67 25.32 87.29 24.40 87.62 23.54 C 88.48 21.31 86.61 21.65 82.44 24.48 C 79.97 26.15 78.25 26.69 77.14 26.14 C 76.24 25.69 68.86 25.44 60.75 25.58 C 52.26 25.73 46.00 25.45 46.00 24.92 C 46.00 24.41 48.00 24.00 50.44 24.00 C 52.88 24.00 55.16 23.55 55.50 23.00 C 55.84 22.45 56.88 22.01 57.81 22.02 C 59.27 22.03 59.30 22.17 58.00 23.03 C 56.96 23.72 58.67 23.85 63.50 23.45 C 67.35 23.13 70.93 22.45 71.45 21.93 C 71.97 21.42 75.49 21.00 79.27 21.00 C 87.99 21.00 90.00 19.97 90.00 15.51 L 90.00 12.09 L 82.75 11.74 L 75.50 11.40 L 82.75 11.20 C 89.46 11.01 90.00 10.84 90.00 8.83 C 90.00 7.64 90.34 7.00 90.75 7.42 C 91.74 8.40 92.72 96.00 91.75 96.00 C 91.34 96.00 90.97 94.99 90.92 93.75Z"/></g>
<g fill="#453A27FF">
<path d="M 80.53 92.05 C 80.11 91.37 81.68 91.00 84.94 91.00 L 90.00 91.00 L 90.00 87.14 L 90.00 83.28 L 84.75 82.65 C 81.86 82.30 78.04 82.01 76.25 82.01 C 74.46 82.00 73.00 81.58 73.00 81.07 C 73.00 79.65 76.96 78.68 82.25 78.79 C 85.77 78.86 87.00 78.51 87.00 77.44 C 87.00 76.33 85.34 75.97 79.75 75.88 L 72.50 75.76 L 78.45 74.89 C 81.73 74.41 85.09 73.34 85.92 72.51 C 87.27 71.16 86.93 71.00 82.80 71.00 C 77.34 71.00 75.00 70.26 75.00 68.54 C 75.00 67.85 73.57 66.11 71.82 64.66 C 70.07 63.21 68.84 61.91 69.07 61.76 C 72.82 59.47 79.78 58.93 78.48 61.03 C 78.16 61.55 76.95 61.55 75.57 61.03 C 72.65 59.92 71.76 60.67 73.07 63.13 C 73.92 64.72 75.28 65.00 82.04 65.00 C 88.96 65.00 90.00 65.23 89.98 66.75 C 89.98 67.71 89.55 69.16 89.04 69.97 C 88.49 70.83 88.48 71.87 89.01 72.51 C 89.50 73.11 90.14 77.88 90.42 83.12 L 90.94 92.65 L 86.05 92.87 C 83.37 92.99 80.88 92.62 80.53 92.05Z"/></g>
<g fill="#8B8167FF">
<path d="M 20.52 92.03 C 19.44 90.28 20.19 73.55 21.38 72.77 C 22.17 72.25 22.13 72.03 21.25 72.02 C 19.63 72.00 19.50 50.80 21.10 47.81 C 21.96 46.20 21.92 45.93 20.93 46.54 C 20.03 47.10 19.85 46.84 20.30 45.65 C 20.66 44.73 20.99 36.90 21.05 28.24 C 21.13 16.70 21.54 11.83 22.57 10.00 C 23.82 7.79 23.93 9.30 23.51 23.00 C 23.24 31.53 22.99 49.85 22.95 63.73 C 22.89 80.02 22.50 89.19 21.83 89.61 C 21.14 90.03 21.20 90.50 22.00 91.00 C 22.80 91.50 22.86 91.97 22.18 92.39 C 21.61 92.74 20.86 92.58 20.52 92.03Z"/></g>
<g fill="#453A27FF">
<path d="M 35.00 78.97 C 35.00 74.65 35.33 73.73 37.00 73.29 C 38.10 73.00 39.00 71.95 39.00 70.94 C 39.00 68.81 39.48 68.45 43.52 67.59 C 47.34 66.77 49.71 68.46 50.97 72.89 C 51.88 76.05 51.69 76.51 48.27 79.64 C 45.88 81.83 43.72 82.94 42.05 82.83 C 40.65 82.73 38.49 82.99 37.25 83.40 C 35.11 84.10 35.00 83.88 35.00 78.97ZM 49.08 75.25 C 49.12 74.84 49.30 73.74 49.48 72.82 C 49.66 71.89 48.88 70.31 47.74 69.32 C 45.72 67.53 45.70 67.55 46.33 70.00 C 46.68 71.38 46.98 73.29 46.99 74.25 C 47.00 75.91 48.92 76.83 49.08 75.25Z"/></g>
<g fill="#14110AFF">
<path d="M 23.81 52.25 C 24.03 28.19 24.60 8.07 25.10 7.55 C 26.08 6.52 26.28 8.49 26.01 16.28 C 25.86 20.75 26.04 21.12 28.88 22.11 C 32.76 23.46 33.30 25.32 32.53 34.75 C 31.88 42.69 30.87 46.06 30.96 39.96 C 31.21 23.35 31.31 24.00 28.55 24.00 C 26.02 24.00 26.00 24.05 26.00 32.50 C 26.00 38.63 26.35 41.00 27.25 41.02 C 28.14 41.03 28.18 41.24 27.37 41.77 C 26.75 42.17 25.92 45.76 25.52 49.75 C 24.86 56.39 24.95 57.01 26.65 57.07 C 28.22 57.13 28.26 57.24 26.89 57.82 C 25.51 58.40 25.28 60.83 25.22 75.00 C 25.14 96.13 25.14 96.00 24.21 96.00 C 23.78 96.00 23.60 76.31 23.81 52.25Z"/></g>
<g fill="#BFBEB8FF">
<path d="M 78.00 60.12 C 74.83 59.56 74.53 59.21 74.76 56.50 C 75.28 50.55 75.45 50.00 76.71 50.00 C 77.42 50.00 78.00 49.52 78.00 48.94 C 78.00 48.36 77.55 48.16 77.00 48.50 C 75.86 49.21 75.77 48.45 76.63 45.26 C 76.96 44.03 77.57 43.23 77.98 43.49 C 78.39 43.74 78.58 42.61 78.39 40.98 C 78.14 38.88 78.47 38.00 79.49 38.00 C 80.37 38.00 80.71 38.59 80.36 39.50 C 80.05 40.33 80.31 41.00 80.95 41.00 C 81.59 41.00 81.86 41.42 81.54 41.94 C 81.18 42.52 82.20 42.52 84.22 41.94 C 86.02 41.42 87.62 41.00 87.78 41.00 C 87.94 41.00 87.60 41.88 87.02 42.96 C 86.44 44.04 86.07 45.27 86.19 45.71 C 86.58 47.16 84.84 54.48 83.79 55.74 C 83.23 56.43 83.00 57.89 83.29 58.99 C 83.84 61.11 83.74 61.13 78.00 60.12ZM 84.40 48.60 C 83.63 46.60 79.00 45.87 79.00 47.75 C 79.00 48.64 79.59 48.99 80.50 48.64 C 81.33 48.32 82.00 48.50 82.00 49.03 C 82.00 49.56 82.66 50.00 83.47 50.00 C 84.31 50.00 84.71 49.41 84.40 48.60Z"/></g>
<g fill="#8B8167FF">
<path d="M 73.12 56.00 C 73.07 54.62 73.68 50.80 74.48 47.50 C 76.61 38.66 76.47 35.00 74.00 35.00 C 71.38 35.00 71.43 33.32 74.07 32.48 C 75.36 32.07 75.93 31.27 75.58 30.36 C 75.27 29.54 75.46 29.16 76.01 29.51 C 76.56 29.84 77.00 29.42 77.00 28.56 C 77.00 26.76 75.44 26.48 74.43 28.11 C 73.96 28.88 73.48 28.80 72.84 27.86 C 72.26 26.98 72.18 27.53 72.61 29.38 C 73.13 31.60 72.96 32.15 71.89 31.77 C 71.13 31.50 70.56 30.55 70.64 29.64 C 70.72 28.74 70.13 28.00 69.33 28.00 C 68.53 28.00 68.16 27.55 68.50 27.00 C 69.30 25.71 76.69 25.69 77.49 26.98 C 77.84 27.56 79.73 26.93 82.03 25.48 C 86.75 22.50 87.38 22.42 86.74 24.89 C 86.47 25.93 86.63 27.39 87.11 28.14 C 87.74 29.14 87.97 29.17 87.98 28.25 C 87.99 27.56 88.47 27.00 89.04 27.00 C 89.75 27.00 89.75 27.60 89.04 28.93 C 88.47 29.99 88.32 31.68 88.70 32.68 C 89.34 34.36 89.26 34.38 87.74 32.87 C 86.84 31.97 85.80 30.06 85.44 28.62 C 84.82 26.13 83.00 24.90 83.00 26.97 C 83.00 27.50 82.36 27.69 81.58 27.39 C 79.85 26.73 78.12 29.74 78.63 32.50 C 78.95 34.27 76.36 47.32 74.05 55.50 C 73.26 58.29 73.20 58.33 73.12 56.00Z"/></g>
<g fill="#BFBEB8FF">
<path d="M 84.00 37.38 C 84.00 35.27 83.62 34.87 82.03 35.28 C 79.50 35.94 78.33 32.62 80.00 29.50 C 81.75 26.23 84.30 27.39 86.84 32.60 C 89.67 38.44 89.60 40.00 86.50 40.00 C 84.47 40.00 84.00 39.51 84.00 37.38Z"/></g>
<g fill="#BFBEB8FF">
<path d="M 93.44 61.00 C 93.44 44.77 93.58 38.14 93.75 46.25 C 93.92 54.36 93.92 67.64 93.75 75.75 C 93.58 83.86 93.44 77.22 93.44 61.00Z"/></g>
<g fill="#645843FF">
<path d="M 69.02 82.19 C 69.01 81.47 68.58 81.14 68.07 81.46 C 67.56 81.77 66.86 81.58 66.51 81.02 C 66.15 80.43 66.94 80.00 68.38 80.00 C 69.76 80.00 71.16 79.55 71.50 79.00 C 71.84 78.45 74.00 77.95 76.31 77.88 C 80.27 77.77 80.33 77.72 77.50 77.00 C 75.11 76.39 75.78 76.21 80.75 76.12 C 85.53 76.03 87.00 76.33 87.00 77.42 C 87.00 78.48 85.61 78.82 81.52 78.79 C 78.04 78.76 75.13 79.34 73.52 80.39 C 72.14 81.30 70.99 81.70 70.98 81.27 C 70.98 80.85 70.53 81.17 70.00 82.00 C 69.30 83.09 69.03 83.14 69.02 82.19Z"/></g>
<g fill="#645843FF">
<path d="M 76.00 74.09 C 77.38 73.60 77.91 73.15 77.19 73.10 C 76.47 73.04 76.16 72.55 76.50 72.00 C 76.84 71.45 76.67 71.00 76.13 71.00 C 75.59 71.00 74.45 69.60 73.60 67.90 C 72.29 65.27 72.28 64.99 73.53 66.02 C 74.34 66.69 75.00 67.83 75.00 68.56 C 75.00 70.26 78.51 71.34 83.47 71.15 C 87.02 71.01 87.27 71.16 85.91 72.52 C 85.07 73.36 81.93 74.26 78.94 74.51 C 75.01 74.84 74.20 74.72 76.00 74.09Z"/></g>
<g fill="#453A27FF">
<path d="M 25.40 82.50 C 25.40 77.00 25.57 74.29 25.77 76.49 C 25.98 78.68 26.68 80.80 27.32 81.21 C 28.22 81.76 28.20 82.42 27.25 83.96 C 26.56 85.07 26.00 87.10 26.00 88.49 C 26.00 90.85 26.31 91.00 31.17 91.00 C 34.01 91.00 36.00 91.34 35.58 91.75 C 35.17 92.16 32.71 92.50 30.12 92.50 L 25.40 92.50 L 25.40 82.50Z"/></g>
<g fill="#8B8167FF">
<path d="M 89.00 55.00 C 89.00 52.51 88.57 51.09 87.85 51.25 C 86.65 51.51 86.22 43.45 87.38 42.29 C 87.72 41.95 88.00 42.22 88.00 42.89 C 88.00 43.57 88.45 43.84 89.00 43.50 C 89.64 43.11 90.00 45.82 90.00 50.94 C 90.00 55.37 89.78 59.00 89.50 59.00 C 89.22 59.00 89.00 57.20 89.00 55.00Z"/></g>
<g fill="#8B8167FF">
<path d="M 81.05 41.03 C 79.65 40.17 81.09 35.00 82.72 35.00 C 83.82 35.00 84.05 35.67 83.59 37.50 C 83.03 39.74 83.26 40.00 85.91 40.00 C 88.37 40.00 88.94 39.54 89.28 37.25 C 89.68 34.61 89.71 34.62 89.85 37.64 C 89.99 40.62 89.78 40.81 85.95 41.18 C 83.73 41.39 81.52 41.32 81.05 41.03Z"/></g>
<g fill="#BFBEB8FF">
<path d="M 44.32 32.62 C 44.68 31.68 44.43 30.99 43.72 30.97 C 41.82 30.92 46.16 28.00 48.13 28.00 C 52.14 28.00 50.61 32.17 46.10 33.51 C 44.15 34.10 43.81 33.93 44.32 32.62Z"/></g>
<g fill="#8B8167FF">
<path d="M 92.40 46.50 C 92.40 38.25 92.56 35.01 92.74 39.30 C 92.93 43.58 92.93 50.33 92.74 54.30 C 92.55 58.26 92.40 54.75 92.40 46.50Z"/></g>
<g fill="#645843FF">
<path d="M 22.87 50.25 C 22.72 40.12 23.02 31.66 23.53 31.14 C 23.73 30.94 23.91 37.13 23.94 44.89 C 23.96 52.65 23.76 59.00 23.49 59.00 C 23.22 59.00 22.94 55.06 22.87 50.25Z"/></g>
<g fill="#8B8167FF">
<path d="M 26.00 32.62 C 26.00 29.03 27.39 25.00 28.62 25.00 C 30.34 25.00 30.43 26.66 28.75 27.34 C 27.75 27.74 27.75 27.86 28.75 27.92 C 29.44 27.96 30.00 28.64 30.00 29.42 C 30.00 30.20 29.44 31.06 28.75 31.34 C 27.75 31.74 27.75 31.86 28.75 31.92 C 30.84 32.05 30.14 34.00 28.00 34.00 C 26.90 34.00 26.00 33.38 26.00 32.62Z"/></g>
<g fill="#8B8167FF">
<path d="M 27.78 55.44 C 30.54 53.51 30.62 51.40 28.00 49.77 C 25.74 48.36 25.38 46.42 27.25 45.66 C 28.23 45.26 28.21 44.95 27.17 44.22 C 26.09 43.46 26.16 43.15 27.50 42.64 C 28.41 42.29 29.28 42.00 29.43 42.00 C 29.58 42.00 29.73 43.36 29.78 45.02 C 29.83 46.68 29.45 47.78 28.93 47.46 C 27.40 46.51 27.88 48.65 29.50 50.00 C 30.32 50.68 31.00 51.80 31.00 52.47 C 31.00 53.84 27.83 57.00 26.45 57.00 C 25.96 57.00 26.56 56.30 27.78 55.44Z"/></g>
<g fill="#453A27FF">
<path d="M 75.50 20.35 C 77.15 20.15 80.86 19.74 83.75 19.42 C 88.99 18.86 89.00 18.85 89.16 15.18 L 89.32 11.50 L 89.74 14.96 C 90.33 19.83 88.26 21.03 79.56 20.85 C 75.68 20.77 73.85 20.54 75.50 20.35Z"/></g>
<g fill="#453A27FF">
<path d="M 23.38 70.50 C 23.38 63.90 23.55 61.33 23.74 64.79 C 23.94 68.25 23.94 73.65 23.74 76.79 C 23.54 79.93 23.38 77.10 23.38 70.50Z"/></g>
<g fill="#645843FF">
<path d="M 81.50 86.00 L 79.50 85.14 L 81.50 84.95 C 82.60 84.85 84.11 84.85 84.85 84.95 C 85.59 85.05 85.96 84.75 85.67 84.28 C 85.38 83.81 86.24 83.33 87.57 83.22 C 90.68 82.97 90.83 85.54 87.75 86.37 C 84.92 87.13 83.99 87.07 81.50 86.00Z"/></g>
<g fill="#BFBEB8FF">
<path d="M 93.37 20.50 C 93.38 14.45 93.54 12.10 93.74 15.29 C 93.94 18.47 93.94 23.42 93.74 26.29 C 93.53 29.15 93.37 26.55 93.37 20.50Z"/></g>
<g fill="#8B8167FF">
<path d="M 73.50 10.37 C 80.57 9.63 89.78 9.56 89.35 10.25 C 89.09 10.66 84.75 10.93 79.69 10.84 C 74.64 10.75 71.85 10.54 73.50 10.37Z"/></g>
<g fill="#8B8167FF">
<path d="M 26.65 10.25 C 26.39 9.84 29.18 9.62 32.84 9.78 C 44.44 10.26 45.80 10.67 36.31 10.84 C 31.25 10.93 26.91 10.66 26.65 10.25Z"/></g>
<g fill="#645843FF">
<path d="M 53.00 60.98 C 50.26 60.45 50.96 60.29 56.24 60.24 C 59.95 60.20 63.21 60.53 63.48 60.97 C 64.07 61.93 57.86 61.94 53.00 60.98Z"/></g>
<g fill="#14110AFF">
<path d="M 46.99 74.25 C 46.98 73.29 46.68 71.38 46.33 70.00 C 45.70 67.55 45.72 67.53 47.74 69.32 C 48.88 70.31 49.66 71.89 49.48 72.82 C 49.30 73.74 49.12 74.84 49.08 75.25 C 48.92 76.83 47.00 75.91 46.99 74.25Z"/></g>
<g fill="#8B8167FF">
<path d="M 26.42 39.75 C 26.74 39.06 27.28 37.71 27.62 36.75 C 28.59 33.98 30.00 34.71 30.00 38.00 C 30.00 40.37 29.56 41.00 27.92 41.00 C 26.61 41.00 26.05 40.54 26.42 39.75Z"/></g>
<g fill="#BFBEB8FF">
<path d="M 20.35 33.50 C 20.35 28.55 20.52 26.40 20.73 28.72 C 20.94 31.04 20.94 35.09 20.74 37.72 C 20.53 40.35 20.36 38.45 20.35 33.50Z"/></g>
<g fill="#BFBEB8FF">
<path d="M 87.25 57.34 C 85.44 56.61 85.66 52.00 87.50 52.00 C 88.50 52.00 89.00 53.00 89.00 55.00 C 89.00 56.65 88.89 57.96 88.75 57.92 C 88.61 57.88 87.94 57.62 87.25 57.34Z"/></g>
<g fill="#453A27FF">
<path d="M 30.28 38.36 C 30.60 37.83 30.47 36.75 29.97 35.96 C 29.22 34.74 28.83 34.83 27.57 36.50 C 26.08 38.47 26.06 38.47 26.03 36.25 C 26.01 34.69 26.59 34.00 27.92 34.00 C 28.97 34.00 30.06 33.54 30.34 32.98 C 30.62 32.41 30.72 32.52 30.56 33.23 C 30.40 33.93 30.66 35.26 31.14 36.19 C 31.69 37.26 31.58 38.14 30.85 38.59 C 30.21 38.99 29.96 38.88 30.28 38.36Z"/></g>
<g fill="#453A27FF">
<path d="M 92.34 87.50 C 92.35 83.10 92.52 81.42 92.73 83.78 C 92.94 86.13 92.94 89.73 92.73 91.78 C 92.51 93.82 92.34 91.90 92.34 87.50Z"/></g>
<g fill="#BFBEB8FF">
<path d="M 51.00 18.25 C 51.00 17.84 53.30 17.66 56.12 17.85 C 59.65 18.10 61.04 17.87 60.57 17.12 C 60.15 16.43 60.48 16.25 61.44 16.62 C 62.29 16.94 62.74 17.61 62.44 18.10 C 61.77 19.18 51.00 19.32 51.00 18.25Z"/></g>
<g fill="#BFBEB8FF">
<path d="M 68.00 85.00 C 67.19 83.48 65.92 83.00 62.71 83.02 C 59.47 83.03 58.84 83.27 60.00 84.09 C 60.99 84.79 61.05 85.03 60.17 84.80 C 57.28 84.03 59.24 82.50 63.13 82.50 C 66.30 82.50 67.60 83.02 68.75 84.75 C 69.57 85.99 69.98 87.00 69.66 87.00 C 69.33 87.00 68.59 86.10 68.00 85.00Z"/></g>
<g fill="#8B8167FF">
<path d="M 92.34 23.00 C 92.34 18.88 92.51 17.19 92.73 19.25 C 92.94 21.31 92.94 24.69 92.73 26.75 C 92.51 28.81 92.34 27.12 92.34 23.00Z"/></g>
<g fill="#14110AFF">
<path d="M 74.95 91.57 C 77.43 90.20 80.00 90.47 80.00 92.11 C 80.00 92.60 78.31 92.98 76.25 92.96 C 72.55 92.93 72.53 92.91 74.95 91.57Z"/></g>
<g fill="#14110AFF">
<path d="M 36.23 91.81 C 36.85 89.96 38.40 89.84 40.54 91.45 C 42.40 92.86 42.33 92.94 39.17 92.97 C 37.03 92.99 35.98 92.57 36.23 91.81Z"/></g>
<g fill="#645843FF">
<path d="M 73.67 82.77 C 73.02 82.36 74.86 82.02 77.75 82.02 C 80.64 82.01 83.00 82.36 83.00 82.80 C 83.00 83.79 75.25 83.77 73.67 82.77Z"/></g>
<g fill="#A6A398FF">
<path d="M 73.62 31.00 C 74.32 28.11 75.69 26.36 76.57 27.24 C 77.47 28.13 76.01 32.12 75.01 31.51 C 74.55 31.22 73.91 31.55 73.59 32.24 C 73.28 32.93 73.29 32.38 73.62 31.00Z"/></g>
<g fill="#453A27FF">
<path d="M 25.09 67.50 C 25.06 64.75 25.41 61.90 25.88 61.17 C 26.37 60.38 26.54 62.04 26.28 65.17 C 25.68 72.49 25.17 73.49 25.09 67.50Z"/></g>
<g fill="#645843FF">
<path d="M 92.32 74.00 C 92.32 70.42 92.50 68.96 92.72 70.75 C 92.95 72.54 92.95 75.46 92.72 77.25 C 92.50 79.04 92.32 77.58 92.32 74.00Z"/></g>
<g fill="#453A27FF">
<path d="M 30.00 28.07 C 30.00 25.83 29.47 25.04 27.75 24.71 C 25.82 24.33 25.89 24.25 28.25 24.14 C 30.75 24.01 31.00 24.32 31.00 27.50 C 31.00 29.43 30.77 31.00 30.50 31.00 C 30.23 31.00 30.00 29.68 30.00 28.07Z"/></g>
<g fill="#BFBEB8FF">
<path d="M 54.00 84.72 C 54.00 83.56 52.83 83.01 49.75 82.73 L 45.50 82.35 L 49.78 82.17 C 52.83 82.05 54.23 82.44 54.65 83.54 C 54.98 84.39 54.97 85.37 54.62 85.71 C 54.28 86.05 54.00 85.61 54.00 84.72Z"/></g>
<g fill="#645843FF">
<path d="M 61.77 21.28 C 63.57 21.05 66.27 21.06 67.77 21.29 C 69.27 21.51 67.80 21.70 64.50 21.69 C 61.20 21.68 59.97 21.50 61.77 21.28Z"/></g>
</svg>
